<svg id="Layer_1" data-name="Layer 1" xmlns="http://www.w3.org/2000/svg" xmlns:xlink="http://www.w3.org/1999/xlink" width="91.1497mm" height="107.0554mm" viewBox="0 0 258.377 303.4643"><defs><style>.cls-1{fill:#231f20;}.cls-2,.cls-4,.cls-6{fill:none;}.cls-2,.cls-3,.cls-4,.cls-5,.cls-6,.cls-7,.cls-8{stroke-miterlimit:10;}.cls-2{stroke:url(#Orange_Yellow);}.cls-3{fill:url(#linear-gradient);stroke:url(#Orange_Yellow-2);}.cls-4{stroke:url(#Orange_Yellow-3);}.cls-5{fill:url(#linear-gradient-2);stroke:url(#Orange_Yellow-4);}.cls-6{stroke:url(#Orange_Yellow-5);}.cls-7{fill:url(#linear-gradient-3);stroke:url(#Orange_Yellow-6);}.cls-8{fill:url(#linear-gradient-4);stroke:url(#Orange_Yellow-7);}.cls-9{fill:#fff;}.cls-10{fill:url(#linear-gradient-5);}.cls-11{fill:url(#linear-gradient-6);}.cls-12{fill:#f8d63b;}</style><linearGradient id="Orange_Yellow" x1="35.4469" y1="129.476" x2="220.6513" y2="129.476" gradientUnits="userSpaceOnUse"><stop offset="0" stop-color="#fff33b"/><stop offset="0.0401" stop-color="#fee72e"/><stop offset="0.1171" stop-color="#fed51b"/><stop offset="0.1964" stop-color="#fdca10"/><stop offset="0.2809" stop-color="#fdc70c"/><stop offset="0.6685" stop-color="#f3903f"/><stop offset="0.8876" stop-color="#ed683c"/><stop offset="1" stop-color="#e93e3a"/></linearGradient><linearGradient id="linear-gradient" x1="87.6942" y1="83.8328" x2="281.0869" y2="49.1213" gradientUnits="userSpaceOnUse"><stop offset="0.4333" stop-color="#ffd540"/><stop offset="0.8702" stop-color="#d38328"/></linearGradient><linearGradient id="Orange_Yellow-2" x1="185.6158" y1="64.8391" x2="201.4169" y2="64.8391" xlink:href="#Orange_Yellow"/><linearGradient id="Orange_Yellow-3" x1="19.9157" y1="126.8771" x2="237.8714" y2="126.8771" xlink:href="#Orange_Yellow"/><linearGradient id="linear-gradient-2" x1="-64.3043" y1="211.2465" x2="129.0885" y2="176.535" xlink:href="#linear-gradient"/><linearGradient id="Orange_Yellow-4" x1="33.6174" y1="192.2528" x2="49.4184" y2="192.2528" xlink:href="#Orange_Yellow"/><linearGradient id="Orange_Yellow-5" x1="0" y1="129.1885" x2="258.377" y2="129.1885" xlink:href="#Orange_Yellow"/><linearGradient id="linear-gradient-3" x1="45.6578" y1="267.6562" x2="315.8731" y2="219.156" xlink:href="#linear-gradient"/><linearGradient id="Orange_Yellow-6" x1="182.6761" y1="241.1175" x2="204.3567" y2="241.1175" xlink:href="#Orange_Yellow"/><linearGradient id="linear-gradient-4" x1="-58.3043" y1="47.7561" x2="135.0885" y2="13.0445" xlink:href="#linear-gradient"/><linearGradient id="Orange_Yellow-7" x1="39.6174" y1="28.7623" x2="55.4184" y2="28.7623" xlink:href="#Orange_Yellow"/><linearGradient id="linear-gradient-5" x1="300.2517" y1="115.8564" x2="296.6341" y2="284.302" gradientUnits="userSpaceOnUse"><stop offset="0.1495" stop-color="#ffd540"/><stop offset="0.9907" stop-color="#d38328"/></linearGradient><linearGradient id="linear-gradient-6" x1="168.2656" y1="176.3056" x2="463.5317" y2="176.3056" xlink:href="#linear-gradient-5"/></defs><circle class="cls-1" cx="109.2577" cy="81.7688" r="5.5021"/><circle class="cls-1" cx="129.2591" cy="94.3426" r="5.5021"/><circle class="cls-1" cx="129.2591" cy="143.7574" r="5.5021"/><circle class="cls-1" cx="162.1837" cy="143.1361" r="5.5021"/><circle class="cls-1" cx="165.2285" cy="107.8132" r="3.7271"/><circle class="cls-1" cx="100.0285" cy="115.2674" r="3.7271"/><circle class="cls-2" cx="128.0491" cy="129.476" r="92.1022"/><circle class="cls-3" cx="193.5164" cy="64.8391" r="7.4005"/><circle class="cls-4" cx="128.8936" cy="126.8771" r="108.4778"/><circle class="cls-5" cx="41.5179" cy="192.2528" r="7.4005"/><circle class="cls-6" cx="129.1885" cy="129.1885" r="128.6885"/><circle class="cls-7" cx="193.5164" cy="241.1175" r="10.3403"/><circle class="cls-8" cx="47.5179" cy="28.7623" r="7.4005"/><path class="cls-9" d="M228.8922,187.8588m72.3639,16.41c5.3353.9229,10.6446,7.0557,10.6,11.9922a8.2523,8.2523,0,0,0,16.4814.8711c.2408-4.3419-3.411-9.0519-7.7254-8.5121-6.982.8735-8.7632-5.1171-12.5918-8.3849-.2458-.21.4931-2.436,1.2159-2.7716,3.3908-1.5737,11.12.4547,13.9133,3.3773a9.666,9.666,0,0,0,13.342.8109,10.1355,10.1355,0,0,0,1.199-13.3638c-3.2527-4.0165-10.734-5.3511-13.4205-1.1453-3.5662,5.583-8.1,4.3124-12.7753,4.2656a13.1048,13.1048,0,0,1-3.4733-1.0286c.4751-1.2693.6173-2.8592,1.48-3.7555,5.24-5.4441,10.4991-10.8892,16.0812-15.972a11.7318,11.7318,0,0,1,6.6578-2.6677c5.1658-.3634,9.0093-3.5712,9.0877-8.4023a8.4177,8.4177,0,0,0-8.7524-8.6c-5.0788.0323-8.3358,3.5587-8.3247,8.8944.003,1.3937.2532,3.2972-.5153,4.102q-9.5268,9.9754-19.4532,19.5662c-2.0006,1.941-3.4816.5921-3.413-1.6377a8.1679,8.1679,0,0,1,1.91-4.6738,49.0463,49.0463,0,0,1,7.6537-7.6518c7.6521-5.7067,10.8737-12.923,9.4415-22.4823-.285-1.9022,1.0924-4.5312,2.5022-6.1124,3.1541-3.5376,3.6032-8.696.451-11.99a8.111,8.111,0,0,0-11.5133-.1856c-3.4027,3.2315-3.3305,8.1493.1734,11.8138,2.5776,2.6958,3.9382,15.1005,1.6119,17.9249-3.481,4.2264-7.3206,8.1574-11.0077,12.214l-1.37-1.0405c0-1.6106-.0151-3.2214.0028-4.8319.0528-4.7573-.7964-9.2924,4.451-12.8906,4.1121-2.82,2.9548-9.5464-1.0036-13.0153a9.46,9.46,0,0,0-13.2819.6035c-3.8193,4.049-3.9727,10.2092.5346,13.4874,3.75,2.7272,3.91,5.6667,2.3866,10.0378a104.7644,104.7644,0,0,1-10.2622-10.4616c-3.55-3.903-3.2943-8.9954.7346-12.5521a9.15,9.15,0,1,0-12.2489-13.5723c-3.8378,3.8739-3.8449,10.1968.6851,13.4016a6.0455,6.0455,0,0,1,2.8035,6.582c-.6626,4.5355,1.1182,7.7989,4.4614,10.7286,3.4518,3.025,6.2118,6.9147,9.8784,9.6018,5.1851,3.8,5.6319,8.7946,5.0525,14.3307-.1066,1.0181-.7212,2.7292-1.2643,2.7961a4.5771,4.5771,0,0,1-3.2751-1.1638A143.7722,143.7722,0,0,1,279.96,172.3217a10.6683,10.6683,0,0,1-2.3384-5.864c-.3636-5.0828-3.4914-8.601-8.2133-8.4936a8.129,8.129,0,0,0-7.9614,8.289c.0386,4.6449,3.707,7.8838,8.7659,7.9166,1.35.0087,3.115.0335,3.9739.8264,4.3419,4.008,8.5392,8.1879,12.5335,12.54.57.6216-.2433,2.5135-.4164,3.8175-5.2946-.9564-11.2593,2.7687-15.9625-2.82-2.73-3.2441-8.1677-3.0281-11.1323-.2791a7.9836,7.9836,0,0,0-.7754,11.09c2.6134,3.2526,7.9,4.6678,10.4308,1.6854,4.0589-4.7828,8.9856-3.7156,13.877-3.6873,1.62.0093,3.2356.83,4.8532,1.2792a37.0081,37.0081,0,0,1-2.5807,4.2662c-3.7214,4.6634-10.4481,7.3833-9.51,15.0714.0733.6-1.2257,1.3826-1.9087,2.0582-3.8025,3.7614-4.1359,8.3155-.8527,11.7648,2.9157,3.0631,8.6715,3.1375,11.5519.1493,3.335-3.46,3.0974-8.6348-1.0068-12.1124-2.7216-2.3061-2.5295-4.3353-.4227-6.6,2.3477-2.5236,4.7715-4.9887,7.3165-7.31.8622-.7864,2.796-1.7608,3.1921-1.4224a5.3647,5.3647,0,0,1,1.7307,3.5783c.106,5.5741.0824,11.1624-.23,16.7267a13.3619,13.3619,0,0,1-1.8372,6.2064c-2.076,3.2629-2.2146,6.1561.5547,8.8329,2.4938,2.41,5.4331,2.308,8.0161.2,3.0489-2.488,2.7975-5.46,1.0411-8.8086-1.2108-2.3086-1.6746-5.0091-2.4723-7.5344l1.8064-.9273c2.5478,2.7158,5.11,5.4178,7.6395,8.1508,3.2448,3.5065,3.06,7.6406-.4535,10.9159-4.0355,3.7613-4.39,9.037-.8472,12.6054a8.83,8.83,0,0,0,12.3852-.1711c3.41-3.5935,2.9176-9.0628-.8623-12.6912-1.1219-1.0769-2.375-2.9256-2.2195-4.264.5974-5.1437-1.5-8.7485-5.2427-11.92-2.4964-2.1151-4.4493-4.9027-7.0407-6.8681C300.4511,214.8094,299.6136,210.1455,301.2561,204.2688Z" transform="translate(-168.4493 -55.0382)"/><path class="cls-10" d="M301.2561,204.2688c-1.6425,5.8767-.805,10.5406,4.0863,14.25,2.5914,1.9654,4.5443,4.753,7.0407,6.8681,3.7432,3.1716,5.84,6.7764,5.2427,11.92-.1555,1.3384,1.0976,3.1871,2.2195,4.264,3.78,3.6284,4.2724,9.0977.8623,12.6912a8.83,8.83,0,0,1-12.3852.1711c-3.5429-3.5684-3.1883-8.8441.8472-12.6054,3.514-3.2753,3.6983-7.4094.4535-10.9159-2.5291-2.733-5.0917-5.435-7.6395-8.1508l-1.8064.9273c.7977,2.5253,1.2615,5.2258,2.4723,7.5344,1.7564,3.3488,2.0078,6.3206-1.0411,8.8086-2.583,2.1077-5.5223,2.21-8.0161-.2-2.7693-2.6768-2.6307-5.57-.5547-8.8329a13.3619,13.3619,0,0,0,1.8372-6.2064c.3119-5.5643.3355-11.1526.23-16.7267a5.3647,5.3647,0,0,0-1.7307-3.5783c-.3961-.3384-2.33.636-3.1921,1.4224-2.545,2.3212-4.9688,4.7863-7.3165,7.31-2.1068,2.2647-2.2989,4.2939.4227,6.6,4.1042,3.4776,4.3418,8.6526,1.0068,12.1124-2.88,2.9882-8.6362,2.9138-11.5519-.1493-3.2832-3.4493-2.95-8.0034.8527-11.7648.683-.6756,1.982-1.4579,1.9087-2.0582-.9378-7.6881,5.7889-10.408,9.51-15.0714a37.0081,37.0081,0,0,0,2.5807-4.2662c-1.6176-.45-3.2331-1.27-4.8532-1.2792-4.8914-.0283-9.8181-1.0955-13.877,3.6873-2.531,2.9824-7.8174,1.5672-10.4308-1.6854a7.9836,7.9836,0,0,1,.7754-11.09c2.9646-2.749,8.4023-2.965,11.1323.2791,4.7032,5.589,10.6679,1.8639,15.9625,2.82.1731-1.304.9867-3.1959.4164-3.8175-3.9943-4.3525-8.1916-8.5324-12.5335-12.54-.8589-.7929-2.6242-.8177-3.9739-.8264-5.0589-.0328-8.7273-3.2717-8.7659-7.9166a8.129,8.129,0,0,1,7.9614-8.289c4.7219-.1074,7.85,3.4108,8.2133,8.4936a10.6683,10.6683,0,0,0,2.3384,5.864,143.7722,143.7722,0,0,0,10.4158,10.4827,4.5771,4.5771,0,0,0,3.2751,1.1638c.5431-.0669,1.1577-1.778,1.2643-2.7961.5794-5.5361.1326-10.5308-5.0525-14.3307-3.6666-2.6871-6.4266-6.5768-9.8784-9.6018-3.3432-2.93-5.124-6.1931-4.4614-10.7286a6.0455,6.0455,0,0,0-2.8035-6.582c-4.53-3.2048-4.5229-9.5277-.6851-13.4016A9.15,9.15,0,1,1,284.2836,140.1c-4.0289,3.5567-4.2844,8.6491-.7346,12.5521a104.7644,104.7644,0,0,0,10.2622,10.4616c1.5234-4.3711,1.3632-7.3106-2.3866-10.0378-4.5073-3.2782-4.3539-9.4384-.5346-13.4874a9.46,9.46,0,0,1,13.2819-.6035c3.9584,3.4689,5.1157,10.1957,1.0036,13.0153-5.2474,3.5982-4.3982,8.1333-4.451,12.8906-.0179,1.6105-.0028,3.2213-.0028,4.8319l1.37,1.0405c3.6871-4.0566,7.5267-7.9876,11.0077-12.214,2.3263-2.8244.9657-15.2291-1.6119-17.9249-3.5039-3.6645-3.5761-8.5823-.1734-11.8138a8.111,8.111,0,0,1,11.5133.1856c3.1522,3.2944,2.7031,8.4528-.451,11.99-1.41,1.5812-2.7872,4.21-2.5022,6.1124,1.4322,9.5593-1.7894,16.7756-9.4415,22.4823a49.0463,49.0463,0,0,0-7.6537,7.6518,8.1679,8.1679,0,0,0-1.91,4.6738c-.0686,2.23,1.4124,3.5787,3.413,1.6377q9.9016-9.6059,19.4532-19.5662c.7685-.8048.5183-2.7083.5153-4.102-.0111-5.3357,3.2459-8.8621,8.3247-8.8944a8.4177,8.4177,0,0,1,8.7524,8.6c-.0784,4.8311-3.9219,8.0389-9.0877,8.4023a11.7318,11.7318,0,0,0-6.6578,2.6677C320,175.7349,314.7409,181.18,309.501,186.6241c-.8626.8963-1.0048,2.4862-1.48,3.7555a13.1048,13.1048,0,0,0,3.4733,1.0286c4.6751.0468,9.2091,1.3174,12.7753-4.2656,2.6865-4.2058,10.1678-2.8712,13.4205,1.1453a10.1355,10.1355,0,0,1-1.199,13.3638,9.666,9.666,0,0,1-13.342-.8109c-2.7929-2.9226-10.5225-4.951-13.9133-3.3773-.7228.3356-1.4617,2.5618-1.2159,2.7716,3.8286,3.2678,5.61,9.2584,12.5918,8.3849,4.3144-.54,7.9662,4.17,7.7254,8.5121a8.2523,8.2523,0,0,1-16.4814-.8711C311.9007,211.3245,306.5914,205.1917,301.2561,204.2688Zm-2.4074-12.9762c-.7778-.0219-.276-.8559-1.0538-.8778-1.4284,1.9731-4.9754,1.971-4.93,3.91.04,1.72,2.7368,4.36,4.6868,4.8314,3.1379.7586,5.5235-1.7018,5.1329-4.8709C302.4315,192.2356,300.0908,193.22,298.8487,191.2926Zm4.551-44.9462c-2.5432-1.863-4.0361-3.7781-5.5979-3.836-1.21-.0449-3.6783,2.455-3.4943,3.4275a5.834,5.834,0,0,0,3.6836,3.8675C299.168,150.0655,300.84,148.0833,303.4,146.3464Zm26.9121,42.3009c-1.9012,2.646-3.8766,4.2241-3.6489,5.3607.3192,1.5937,2.2776,2.859,3.5348,4.2647,1.3094-1.222,3.5785-2.3745,3.6735-3.6846C333.9784,193.1093,332.13,191.4888,330.3118,188.6473Zm-46.814-55.6309c-2.4385-1.6269-3.9015-3.3571-5.1149-3.1968-1.1729.1549-2.6173,2.1493-2.9029,3.548-.1513.741,1.9334,2.7524,2.9618,2.72C279.8021,136.044,281.1166,134.56,283.4978,133.0164Zm32.0748,118.0463c1.2617-1.7483,1.7578-1.6815,1.6846-2.7107a3.7049,3.7049,0,0,0-2.78-2.43c-.8879-.0046-2.4458,1.6562-2.4928,2.64C311.9363,249.5608,314.3308,249.4261,315.5726,251.0627Zm21.1931-91.9294c-2.1023-1.16-3.3231-2.3893-4.263-2.2027-1.02.2025-1.78,1.7222-2.6526,2.6675,1,.8112,1.9633,2.1952,3.0122,2.2638C333.8109,161.9239,334.8534,160.5492,336.7657,159.1333Z" transform="translate(-168.4493 -55.0382)"/><path class="cls-9" d="M298.9427,192.3007c1.2421,1.9278,3.4888-.0651,3.7414,1.9846.3906,3.1691-1.995,5.63-5.1329,4.8709-1.95-.4714-4.6471-3.1112-4.6868-4.8314-.0449-1.939,2.8292-1.0591,4.2576-3.0322C297.9,191.3145,298.1649,192.2788,298.9427,192.3007Z" transform="translate(-168.4493 -55.0382)"/><path class="cls-9" d="M301.5569,146.1692c-2.5595,1.7368-2.3889,3.8963-3.5658,3.6362a5.834,5.834,0,0,1-3.6836-3.8675c-.184-.9725,2.2846-3.4724,3.4943-3.4275C299.3636,142.5683,299.0138,144.3062,301.5569,146.1692Z" transform="translate(-168.4493 -55.0382)"/><path class="cls-9" d="M330.3118,188.6473c1.8186,2.8415,3.6666,4.462,3.5594,5.9408-.095,1.31-2.3641,2.4626-3.6735,3.6846-1.2572-1.4057-3.2156-2.671-3.5348-4.2647C326.4352,192.8714,328.4106,191.2933,330.3118,188.6473Z" transform="translate(-168.4493 -55.0382)"/><path class="cls-9" d="M283.4978,133.0164c-2.3812,1.5435-3.6957,3.0276-5.056,3.0709-1.0284.0327-3.1131-1.9787-2.9618-2.72.2856-1.3987,1.73-3.3931,2.9029-3.548C279.5963,129.6593,281.0593,131.39,283.4978,133.0164Z" transform="translate(-168.4493 -55.0382)"/><path class="cls-9" d="M315.5726,251.0627c-1.2418-1.6366-3.6363-1.5019-3.5886-2.5007.047-.9839,1.6049-2.6447,2.4928-2.64a3.7049,3.7049,0,0,1,2.78,2.43C317.33,249.3812,316.8343,249.3144,315.5726,251.0627Z" transform="translate(-168.4493 -55.0382)"/><path class="cls-9" d="M332.5027,156.9306c.94-.1866,2.1607,1.0425,4.263,2.2027-1.9123,1.4159-2.9548,2.7906-3.9034,2.7286" transform="translate(-168.4493 -55.0382)"/><circle class="cls-1" cx="109.9635" cy="77.1127" r="5.5021"/><circle class="cls-1" cx="129.965" cy="89.6866" r="5.5021"/><circle class="cls-1" cx="129.965" cy="139.1014" r="5.5021"/><circle class="cls-1" cx="162.8895" cy="138.48" r="5.5021"/><circle class="cls-1" cx="96.1249" cy="139.1014" r="5.5021"/><circle class="cls-1" cx="164.8586" cy="103.8833" r="3.7271"/><circle class="cls-1" cx="100.7343" cy="110.6114" r="3.7271"/><circle class="cls-1" cx="129.965" cy="180.7184" r="3.7271"/><circle class="cls-1" cx="146.4991" cy="193.7984" r="3.7271"/><path class="cls-11" d="M346.9436,236.3961c-10.881-5.5539-14.095-12.4651-10.7214-23.52,2.22-7.2752,5.7379-14.15,8.0518-21.4022,2.5076-7.86,5.657-15.8714,6.1229-23.9554,1.158-20.0962-12.5512-41.7883-34.69-49.6992-20.1836-7.2123-40.65-3.1443-53.2979,10.9559a39.87,39.87,0,0,0-10.4473,25.8691c-.5547,20.4475-.4937,40.9254-.0922,61.3793.2089,10.6433,5.4995,18.4157,15.6365,22.9109,7.018,3.112,7.5492,5.5674,3.8722,11.756-1.8807-5.6965-6.7744-5.9467-11.37-6.6138-5.0939-.7395-10.2863-.9685-15.3006-2.0477-6.797-1.4629-8.006-2.6193-8.22-9.5208-.1061-3.4283-1.419-7.555-.2293-10.9657,1.72-4.93-.1564-5.348-.87-8.5963-.3945-2.8844-1.274-5.8788-1.0867-8.8048.2407-3.7609-.3887-6.6489-4.1921-8.0057a5.7029,5.7029,0,0,1-3.4349-7.8192c1.9278-4.7014,5.9082-8.03,8.7066-12.537,3.7325-5.457,4.9588-8.2666,4.1771-13.45A52.4748,52.4748,0,0,1,283.15,102.8843c22.2423-3.4781,41.9207,2.5169,58.8609,17.0072,19.8909,17.0143,25.1528,45.3409,13.5076,70.1588a90.3193,90.3193,0,0,1-4.7042,8.792C343.5671,210.6775,338.67,222.7321,346.9436,236.3961Z" transform="translate(-168.4493 -55.0382)"/><path class="cls-12" d="M388.3026,334.8719l.4153-.8387c-1.9036-1.734-3.9-3.3828-5.6806-5.23-1.3431-1.3933-2.5667-1.3513-4.175-.5424a9.5637,9.5637,0,0,0,3.9689,18.1728c3.7753.1626,7.5632.0245,11.3446.0819,1.4448.022,3.0008.1715,2.9042,2.1437-.0874,1.7821-1.4836,1.8443-2.8809,1.8447q-7.9164.0018-15.8328.0384c-5.0216.02-4.9508.0248-4.8516,4.9913.0392,1.9641.7092,2.6726,2.7873,2.6342,6.2429-.1151,12.49-.0253,18.7348-.0419,5.73-.0153,10.0095-4.078,9.9946-9.4488-.0182-6.5814-3.3182-9.9331-9.8687-9.9875-3.5182-.0293-7.0368-.01-10.5552-.0231-1.4293-.0053-3.1007.08-3.1515-1.851-.0512-1.9469,1.5835-1.9432,3.0413-1.9436Q386.4,334.8716,388.3026,334.8719Z" transform="translate(-168.4493 -55.0382)"/><path class="cls-12" d="M211.868,345.1951l.6778-.2366c0-2.7971.0729-5.5966-.025-8.39-.0682-1.9469.7056-2.5022,2.6707-2.3775,2.9276.1859,5.8767.0482,9.0775.0482a37.3076,37.3076,0,0,1,.0327-4.6061c.343-2.4831-.8221-3.0531-3.13-3.0215-7.47.1022-14.9425.0269-22.4139.0553-6.7706.0257-6.9059.2133-5.5413,7.72a74.1324,74.1324,0,0,0,8.1692-.07c2.3944-.2635,3.55.1978,3.2926,2.7292a1.9757,1.9757,0,0,0,.4931,1.4019C207.37,340.728,209.6285,342.9526,211.868,345.1951Z" transform="translate(-168.4493 -55.0382)"/><path class="cls-12" d="M308.4063,357.6113c-2.7-2.6705-4.9778-4.76-7.0345-7.039a5.9908,5.9908,0,0,1-1.6535-3.3959c-.2058-5.9218-.2353-11.8527-.1655-17.7786.025-2.1192-.7012-2.8344-2.8854-2.8169-4.8183.0388-4.8189-.061-4.7981,4.7178.0018.43-.0034.8591-.0035,1.2886q-.0021,11.34.0042,22.679c.002,1.09-.1963,2.355,1.5925,2.35C298.1819,357.602,302.9014,357.6113,308.4063,357.6113Z" transform="translate(-168.4493 -55.0382)"/><path class="cls-12" d="M355.69,351.7871c5.58-5.49,5.0124-15.1247-.8177-20.8827-5.0111-4.949-14.7951-6.4424-21.3163-.27a19.3922,19.3922,0,0,1,2.8047,2.3209c1.4517,1.7317,2.809,2.303,5.3239,1.7087,6.2086-1.4671,11.5676,3.6628,9.7193,9.2829-.8521,2.591-.1689,3.9875,1.6717,5.4527C353.9552,350.0993,354.74,350.9125,355.69,351.7871Z" transform="translate(-168.4493 -55.0382)"/><path class="cls-12" d="M354.0672,353.2184c-1.4945-1.2306-2.9741-2.5842-4.6113-3.7217a2.91,2.91,0,0,0-2.2558-.2582c-3.3841,1.148-6.4.7964-9.01-1.7178-2.6389-2.5416-2.8374-5.5265-1.7736-8.814a2.796,2.796,0,0,0-.2423-2.2221c-1.1754-1.5882-2.58-3.0148-3.8713-4.4775-5.9868,5.2864-5.5588,15.291.3831,21.0375C338.61,358.7742,348.6906,359.1563,354.0672,353.2184Z" transform="translate(-168.4493 -55.0382)"/><path class="cls-12" d="M258.1365,326.2681c-1.46,2.2938-2.7172,4.0569-3.7151,5.95a2.928,2.928,0,0,0-.03,2.4668c4.3322,7.1743,8.7595,14.2941,13.208,21.4008.3787.605,1.0641,1.4063,1.6508,1.4426,2.5609.1586,5.138.0682,8.2287.0682Z" transform="translate(-168.4493 -55.0382)"/><path class="cls-12" d="M238.6258,357.61c2.9041,0,5.1011.132,7.2669-.0641a3.76,3.76,0,0,0,2.4907-1.3735c2.5967-3.8573,5.0491-7.8086,7.4791-11.77a2.2224,2.2224,0,0,0,.2267-1.8605c-1.1775-2.1407-2.5264-4.1915-4.0435-6.6459Z" transform="translate(-168.4493 -55.0382)"/><path class="cls-12" d="M405.14,333.7425a11.7455,11.7455,0,0,0,.1988-1.7013c-.1323-6.1083,1.0963-5.2765-5.3544-5.3623-4.614-.0614-9.2295-.012-14.0845-.012C390.9228,334.0629,395.935,335.8527,405.14,333.7425Z" transform="translate(-168.4493 -55.0382)"/><path class="cls-12" d="M204.6578,341.9691c0,4.3975-.0132,8.3047.0041,12.2117.0149,3.381.0324,3.4554,3.56,3.36a7.0045,7.0045,0,0,0,3.863-.8747c1.1263-.874.39-7.2173-.7032-8.2979C209.3524,346.3613,207.2492,344.426,204.6578,341.9691Z" transform="translate(-168.4493 -55.0382)"/><path class="cls-12" d="M311.9928,358.5024l1.6335-1.1956c0-1.9511.0951-3.91-.0657-5.8481a1.9728,1.9728,0,0,0-1.3754-1.3253c-2.3122-.1433-4.6388-.0629-6.8632-.0629Z" transform="translate(-168.4493 -55.0382)"/><path class="cls-12" d="M234.8136,355.7909l-.0176-1.1715c-1.0652-.7175-2.1776-2.0437-3.1813-1.9694-.8819.0652-2.3968,1.8146-2.2688,2.6114a4.0473,4.0473,0,0,0,2.6469,2.6359C232.7271,358.0633,233.8594,356.5518,234.8136,355.7909Z" transform="translate(-168.4493 -55.0382)"/><path class="cls-12" d="M281.97,355.6285c1.0072.8082,1.9985,2.2158,3.0263,2.2415.8762.0221,2.3234-1.4228,2.57-2.4378.3666-1.5125-.6468-2.7877-2.5012-2.8508C283.3578,352.5234,282.5346,353.4538,281.97,355.6285Z" transform="translate(-168.4493 -55.0382)"/><path class="cls-12" d="M370.7863,355.2428c-1.7238-1.3288-2.7765-2.7428-3.62-2.6324a3.9221,3.9221,0,0,0-2.5283,2.5109,2.1656,2.1656,0,0,0,2.4657,2.7983C368.1505,357.7862,369.0509,356.5614,370.7863,355.2428Z" transform="translate(-168.4493 -55.0382)"/><path class="cls-12" d="M324.2,355.6743c-.5131-2.188-1.2559-3.1678-3.0494-3.0787s-2.6993,1.311-2.274,2.7526a3.9275,3.9275,0,0,0,2.5285,2.4954C322.2579,357.9238,323.2628,356.458,324.2,355.6743Z" transform="translate(-168.4493 -55.0382)"/><path class="cls-12" d="M388.3026,334.8719q-1.9026,0-3.8053,0c-1.4578,0-3.0925-.0033-3.0413,1.9436.0508,1.9312,1.7222,1.8457,3.1515,1.851,3.5184.0131,7.037-.0062,10.5552.0231,6.5505.0544,9.8505,3.4061,9.8687,9.9875.0149,5.3708-4.2645,9.4335-9.9946,9.4488-6.2452.0166-12.4919-.0732-18.7348.0419-2.0781.0384-2.7481-.67-2.7873-2.6342-.0992-4.9665-.17-4.9711,4.8516-4.9913q7.9164-.0319,15.8328-.0384c1.3973,0,2.7935-.0626,2.8809-1.8447.0966-1.9722-1.4594-2.1217-2.9042-2.1437-3.7814-.0574-7.5693.0807-11.3446-.0819a9.5637,9.5637,0,0,1-3.9689-18.1728c1.6083-.8089,2.8319-.8509,4.175.5424,1.78,1.8472,3.777,3.496,5.6806,5.23Z" transform="translate(-168.4493 -55.0382)"/><path class="cls-12" d="M211.868,345.1951c-2.2395-2.2425-4.4983-4.4671-6.697-6.747a1.9757,1.9757,0,0,1-.4931-1.4019c.257-2.5314-.8982-2.9927-3.2926-2.7292a74.1324,74.1324,0,0,1-8.1692.07c-1.3646-7.507-1.2293-7.6946,5.5413-7.72,7.4714-.0284,14.9438.0469,22.4139-.0553,2.3083-.0316,3.4734.5384,3.13,3.0215a37.3076,37.3076,0,0,0-.0327,4.6061c-3.2008,0-6.15.1377-9.0775-.0482-1.9651-.1247-2.7389.4306-2.6707,2.3775.0979,2.7938.025,5.5933.025,8.39Z" transform="translate(-168.4493 -55.0382)"/><path class="cls-12" d="M308.4063,357.6113c-5.5049,0-10.2244-.0093-14.9438.0047-1.7888.0053-1.59-1.26-1.5925-2.35q-.0208-11.34-.0042-22.679c0-.43.0053-.8591.0035-1.2886-.0208-4.7788-.02-4.679,4.7981-4.7178,2.1842-.0175,2.91.6977,2.8854,2.8169-.07,5.9259-.04,11.8568.1655,17.7786a5.9908,5.9908,0,0,0,1.6535,3.3959C303.4285,352.8517,305.7066,354.9408,308.4063,357.6113Z" transform="translate(-168.4493 -55.0382)"/><path class="cls-12" d="M355.69,351.7871c-.95-.8746-1.7349-1.6878-2.6144-2.3879-1.8406-1.4652-2.5238-2.8617-1.6717-5.4527,1.8483-5.62-3.5107-10.75-9.7193-9.2829-2.5149.5943-3.8722.023-5.3239-1.7087a19.3922,19.3922,0,0,0-2.8047-2.3209c6.5212-6.172,16.3052-4.6786,21.3163.27C360.7025,336.6624,361.27,346.2966,355.69,351.7871Z" transform="translate(-168.4493 -55.0382)"/><path class="cls-12" d="M354.0672,353.2184c-5.3766,5.9379-15.457,5.5558-21.3815-.1738-5.9419-5.7465-6.37-15.7511-.3831-21.0375,1.2912,1.4627,2.6959,2.8893,3.8713,4.4775a2.796,2.796,0,0,1,.2423,2.2221c-1.0638,3.2875-.8653,6.2724,1.7736,8.814,2.61,2.5142,5.6262,2.8658,9.01,1.7178a2.91,2.91,0,0,1,2.2558.2582C351.0931,350.6342,352.5727,351.9878,354.0672,353.2184Z" transform="translate(-168.4493 -55.0382)"/><path class="cls-12" d="M258.1365,326.2681l19.3426,31.3285c-3.0907,0-5.6678.09-8.2287-.0682-.5867-.0363-1.2721-.8376-1.6508-1.4426-4.4485-7.1067-8.8758-14.2265-13.208-21.4008a2.928,2.928,0,0,1,.03-2.4668C255.4193,330.325,256.6763,328.5619,258.1365,326.2681Z" transform="translate(-168.4493 -55.0382)"/><path class="cls-12" d="M238.6258,357.61l13.42-21.7138c1.5171,2.4544,2.866,4.5052,4.0435,6.6459a2.2224,2.2224,0,0,1-.2267,1.8605c-2.43,3.9612-4.8824,7.9125-7.4791,11.77a3.76,3.76,0,0,1-2.4907,1.3735C243.7269,357.742,241.53,357.61,238.6258,357.61Z" transform="translate(-168.4493 -55.0382)"/><path class="cls-12" d="M405.14,333.7425c-9.205,2.11-14.2172.32-19.24-7.0756,4.855,0,9.4705-.0494,14.0845.012,6.4507.0858,5.2221-.746,5.3544,5.3623A11.7455,11.7455,0,0,1,405.14,333.7425Z" transform="translate(-168.4493 -55.0382)"/><path class="cls-12" d="M204.6578,341.9691c2.5914,2.4569,4.6946,4.3922,6.724,6.3986,1.093,1.0806,1.8295,7.4239.7032,8.2979a7.0045,7.0045,0,0,1-3.863.8747c-3.5277.0959-3.5452.0215-3.56-3.36C204.6446,350.2738,204.6578,346.3666,204.6578,341.9691Z" transform="translate(-168.4493 -55.0382)"/><path class="cls-12" d="M311.9928,358.5024l-6.6708-8.4319c2.2244,0,4.551-.08,6.8632.0629a1.9728,1.9728,0,0,1,1.3754,1.3253c.1608,1.9384.0657,3.897.0657,5.8481Z" transform="translate(-168.4493 -55.0382)"/><path class="cls-12" d="M234.8136,355.7909c-.9542.7609-2.0865,2.2724-2.8208,2.1064a4.0473,4.0473,0,0,1-2.6469-2.6359c-.128-.7968,1.3869-2.5462,2.2688-2.6114,1.0037-.0743,2.1161,1.2519,3.1813,1.9694Z" transform="translate(-168.4493 -55.0382)"/><path class="cls-12" d="M281.97,355.6285c.5651-2.1747,1.3883-3.1051,3.0946-3.0471,1.8544.0631,2.8678,1.3383,2.5012,2.8508-.2461,1.015-1.6933,2.46-2.57,2.4378C283.968,357.8443,282.9767,356.4367,281.97,355.6285Z" transform="translate(-168.4493 -55.0382)"/><path class="cls-12" d="M370.7863,355.2428c-1.7354,1.3186-2.6358,2.5434-3.6823,2.6768a2.1656,2.1656,0,0,1-2.4657-2.7983,3.9221,3.9221,0,0,1,2.5283-2.5109C368.01,352.5,369.0625,353.914,370.7863,355.2428Z" transform="translate(-168.4493 -55.0382)"/><path class="cls-12" d="M324.2,355.6743c-.9376.7837-1.9425,2.25-2.7949,2.1693a3.9275,3.9275,0,0,1-2.5285-2.4954c-.4253-1.4416.4818-2.6635,2.274-2.7526S323.6873,353.4863,324.2,355.6743Z" transform="translate(-168.4493 -55.0382)"/></svg>